<svg width="83" height="204" viewBox="0 0 83 204" xmlns="http://www.w3.org/2000/svg">
  <path d="M59.177 106.968l3.66-17.108 1.143-5.487 4.036-18.83L82.126 0 61.08 59.953 53.314 82.16l.25.204-3.876 10.28-16.233-12.458-6.578 49.973L12.32 118.9s-1.05 8.155-2.544 19.447c-.514 3.866-1.083 8.088-1.664 12.468-.593 4.415-1.22 8.976-1.85 13.517-.682 4.87-1.368 9.682-2.016 14.223C2.476 190.645.88 200.648 0 203.82l8.626-21.764 4.753-11.986 4.666-11.774 4.45-11.22 2.257-5.695 11.554 9.274 11.11-52.183 11.76 8.498z" fill="#000" fill-rule="evenodd"/>
</svg>
